<svg width="78" height="76" viewBox="0 0 78 76" fill="none" xmlns="http://www.w3.org/2000/svg">
<defs>
<linearGradient id="paint0_linear_352_3195" x1="77.9741" y1="0.000607206" x2="-0.389215" y2="75.1686" gradientUnits="userSpaceOnUse">
<stop stop-color="#6200EE"/>
<stop offset="1" stop-color="#4C00B8"/>
</linearGradient>
</defs>
<path d="M52.4381 0.000612297C52.2739 0.00271789 52.1054 0.0108107 51.938 0.0239951C45.2713 1.1807 41.6058 8.26678 41.0746 14.5155C40.2984 20.1856 42.7843 27.4734 48.9779 28.7439C49.8763 28.9159 50.8098 28.8373 51.6879 28.5978C59.1461 26.084 62.4838 17.2051 61.4057 9.85062C61.0923 5.10066 57.5301 -0.0646612 52.4381 0.000612297ZM24.1747 0.304589C20.0294 0.406871 16.8003 4.63292 16.1434 8.60549C14.7587 16.476 18.3204 26.2552 26.4776 28.7439C27.2417 28.911 28.032 28.9282 28.8038 28.8082C34.3172 27.8846 36.6528 21.6711 36.4222 16.655C36.2562 10.0382 32.8368 2.38717 26.0007 0.526726C25.3759 0.360163 24.7668 0.289977 24.1747 0.304589ZM70.5012 22.6586C63.3301 23.0898 58.4137 30.2821 57.7128 36.9981C56.7638 41.8418 59.3328 48.3203 64.831 48.707C72.4976 48.612 77.7278 40.3774 77.9451 33.2919C78.43 28.6057 75.6838 22.9173 70.5012 22.6586ZM7.73415 24.2544C4.68327 24.2281 1.68272 26.065 0.685723 29.1824C-1.97411 37.5214 3.36718 48.0828 12.154 49.8352C15.8211 50.466 19.0433 47.6352 19.9526 44.2292C21.8795 36.9441 17.9216 28.485 11.2235 25.1781C10.1322 24.5625 8.92797 24.2648 7.73415 24.2544ZM39.8824 39.2077C33.9014 39.2206 27.8265 42.2715 23.9537 46.813C19.7707 52.1063 16.3441 58.2662 15.0036 64.9464C13.375 69.7551 17.0662 75.2891 22.1799 75.3225C28.3321 75.4943 33.6195 71.2477 39.737 70.9324C44.9273 70.137 49.5747 72.8507 54.241 74.6269C58.214 76.335 63.7041 75.6804 65.7325 71.3825C67.328 67.0017 64.9795 62.3305 63.034 58.4401C59.066 52.1254 54.8151 45.4887 48.3091 41.546C45.7014 39.9213 42.8034 39.2015 39.8824 39.2077Z" fill="url(#paint0_linear_352_3195)"/>
</svg>
