<svg width="327" height="218" viewBox="0 0 327 218" fill="none" xmlns="http://www.w3.org/2000/svg">
<defs>
<clipPath id="clip0_6_74">
<rect width="327" height="218" fill="white"/>
</clipPath>
</defs>
<g clip-path="url(#clip0_6_74)">
<path d="M0 94.5353C0 66.5078 22.7638 0 50.8444 0C78.925 0 101.689 66.5078 101.689 94.5353C101.689 107.995 96.332 120.903 86.7968 130.42C77.2616 139.937 64.3292 145.284 50.8444 145.284C37.3596 145.284 24.4272 139.937 14.892 130.42C5.3568 120.903 2.00939e-07 107.995 0 94.5353Z" fill="#E6E6E6"/>
<path d="M50.8444 218C50.7335 218 50.6271 217.956 50.5487 217.878C50.4703 217.799 50.4263 217.693 50.4263 217.583V42.6194C50.4263 42.5088 50.4703 42.4026 50.5487 42.3244C50.6271 42.2461 50.7335 42.2021 50.8444 42.2021C50.9553 42.2021 51.0616 42.2461 51.14 42.3244C51.2184 42.4026 51.2625 42.5088 51.2625 42.6194V217.583C51.2625 217.693 51.2184 217.799 51.14 217.878C51.0616 217.956 50.9553 218 50.8444 218Z" fill="#3F3D56"/>
<path d="M50.8444 76.3974C50.7895 76.3974 50.7351 76.3867 50.6843 76.3657C50.6336 76.3447 50.5875 76.3139 50.5487 76.2751L30.4246 56.1891C30.3854 56.1505 30.3542 56.1044 30.3329 56.0537C30.3115 56.003 30.3005 55.9485 30.3003 55.8935C30.3001 55.8385 30.3109 55.784 30.3319 55.7331C30.3529 55.6822 30.3838 55.636 30.4228 55.5971C30.4618 55.5582 30.5081 55.5274 30.559 55.5064C30.61 55.4854 30.6646 55.4747 30.7197 55.4749C30.7749 55.4751 30.8294 55.4862 30.8802 55.5075C30.9311 55.5288 30.9772 55.5599 31.0159 55.599L51.14 75.685C51.1985 75.7434 51.2383 75.8177 51.2544 75.8987C51.2705 75.9796 51.2622 76.0635 51.2306 76.1397C51.199 76.216 51.1454 76.2811 51.0766 76.327C51.0079 76.3728 50.9271 76.3973 50.8444 76.3973V76.3974Z" fill="#3F3D56"/>
<path d="M50.8444 111.17C50.7617 111.17 50.6809 111.146 50.6121 111.1C50.5434 111.054 50.4898 110.989 50.4581 110.913C50.4265 110.836 50.4182 110.752 50.4343 110.672C50.4505 110.591 50.4903 110.516 50.5487 110.458L84.2502 76.82C84.2889 76.7808 84.3351 76.7497 84.3859 76.7284C84.4367 76.7071 84.4913 76.696 84.5464 76.6958C84.6015 76.6957 84.6561 76.7064 84.7071 76.7273C84.7581 76.7483 84.8044 76.7791 84.8434 76.818C84.8823 76.8569 84.9132 76.9031 84.9342 76.954C84.9553 77.0049 84.966 77.0594 84.9658 77.1144C84.9657 77.1694 84.9546 77.2239 84.9333 77.2746C84.9119 77.3253 84.8807 77.3714 84.8415 77.41L51.14 111.048C51.1012 111.087 51.0552 111.118 51.0044 111.139C50.9537 111.16 50.8993 111.17 50.8444 111.17Z" fill="#3F3D56"/>
<path d="M96.8812 128.647C96.8812 108.507 113.25 60.7157 133.442 60.7157C153.633 60.7157 170.002 108.507 170.002 128.647C169.996 138.321 166.141 147.596 159.285 154.434C152.429 161.272 143.134 165.114 133.442 165.114C123.75 165.114 114.454 161.272 107.598 154.434C100.743 147.596 96.8878 138.321 96.8812 128.647Z" fill="#E6E6E6"/>
<path d="M133.442 217.366C133.402 217.366 133.363 217.358 133.327 217.343C133.29 217.328 133.257 217.306 133.229 217.278C133.201 217.25 133.179 217.217 133.164 217.181C133.149 217.145 133.141 217.106 133.141 217.066V91.3412C133.141 91.2618 133.173 91.1858 133.229 91.1297C133.286 91.0737 133.362 91.0423 133.442 91.0423C133.521 91.0423 133.598 91.0737 133.654 91.1297C133.71 91.1858 133.742 91.2618 133.742 91.3412V217.066C133.742 217.106 133.734 217.145 133.719 217.181C133.704 217.217 133.682 217.25 133.654 217.278C133.626 217.306 133.593 217.328 133.557 217.343C133.52 217.358 133.481 217.366 133.442 217.366Z" fill="#3F3D56"/>
<path d="M133.442 115.613C133.402 115.613 133.363 115.606 133.327 115.591C133.29 115.575 133.257 115.553 133.229 115.525L118.759 101.092C118.702 101.036 118.671 100.96 118.671 100.88C118.671 100.8 118.702 100.724 118.759 100.668C118.815 100.612 118.892 100.58 118.971 100.58C119.051 100.58 119.127 100.612 119.184 100.668L133.654 115.101C133.696 115.143 133.725 115.197 133.736 115.255C133.748 115.313 133.742 115.373 133.719 115.428C133.697 115.483 133.658 115.53 133.609 115.563C133.559 115.596 133.501 115.613 133.442 115.613Z" fill="#3F3D56"/>
<path d="M133.442 140.6C133.382 140.6 133.324 140.583 133.275 140.55C133.225 140.517 133.187 140.47 133.164 140.415C133.141 140.361 133.135 140.3 133.147 140.242C133.158 140.184 133.187 140.13 133.229 140.088L157.463 115.917C157.491 115.889 157.524 115.867 157.56 115.852C157.597 115.837 157.636 115.829 157.675 115.829C157.715 115.829 157.754 115.837 157.79 115.852C157.827 115.867 157.86 115.889 157.888 115.917C157.916 115.945 157.938 115.978 157.953 116.014C157.968 116.05 157.976 116.089 157.976 116.129C157.976 116.168 157.968 116.207 157.953 116.244C157.938 116.28 157.916 116.313 157.888 116.341L133.654 140.513C133.626 140.54 133.593 140.563 133.557 140.578C133.52 140.593 133.481 140.6 133.442 140.6Z" fill="#3F3D56"/>
<path d="M135.624 214.962C135.103 214.961 134.591 214.823 134.141 214.562C133.69 214.301 133.316 213.925 133.058 213.474C132.799 213.023 132.664 212.511 132.667 211.991C132.67 211.471 132.81 210.961 133.073 210.512V210.512L137.218 203.448L142.33 206.436L138.185 213.5C137.923 213.946 137.549 214.315 137.099 214.571C136.65 214.828 136.141 214.962 135.624 214.962Z" fill="#E6E6E6"/>
<path d="M151.89 198.817C153.904 198.817 155.536 197.188 155.536 195.179C155.536 193.17 153.904 191.541 151.89 191.541C149.877 191.541 148.245 193.17 148.245 195.179C148.245 197.188 149.877 198.817 151.89 198.817Z" fill="#E6E6E6"/>
<path d="M119.586 214.961C119.065 214.961 118.553 214.823 118.102 214.562C117.652 214.301 117.278 213.925 117.019 213.474C116.761 213.022 116.626 212.511 116.629 211.991C116.631 211.471 116.772 210.96 117.035 210.512L121.18 203.448L126.292 206.436L122.146 213.5C121.885 213.946 121.51 214.315 121.061 214.571C120.612 214.828 120.103 214.962 119.586 214.961Z" fill="#E6E6E6"/>
<path d="M143.452 210.24H125.085C122.585 210.237 120.189 209.245 118.421 207.481C116.654 205.717 115.66 203.325 115.657 200.83V198.045C115.658 197.179 116.003 196.348 116.617 195.735C117.231 195.123 118.063 194.778 118.931 194.777H143.452C145.506 194.777 147.476 195.592 148.929 197.042C150.382 198.492 151.198 200.458 151.198 202.509C151.198 204.559 150.382 206.526 148.929 207.976C147.476 209.426 145.506 210.24 143.452 210.24Z" fill="#3F3D56"/>
<path d="M142.581 217.367C141.796 217.366 141.043 217.055 140.488 216.5C139.933 215.946 139.62 215.195 139.62 214.411V206.225H145.543V214.411C145.542 215.195 145.23 215.946 144.675 216.5C144.119 217.055 143.367 217.366 142.581 217.367Z" fill="#3F3D56"/>
<path d="M125.393 217.367C124.608 217.366 123.855 217.055 123.3 216.5C122.744 215.946 122.432 215.195 122.431 214.411V206.225H128.355V214.411C128.354 215.195 128.041 215.946 127.486 216.5C126.931 217.055 126.178 217.366 125.393 217.367Z" fill="#3F3D56"/>
<path d="M110.246 189.469L104.562 194.026L98.5702 186.579C97.9678 185.827 97.6891 184.866 97.7951 183.909C97.9011 182.951 98.3832 182.075 99.1356 181.472C99.8881 180.868 100.85 180.588 101.809 180.691C102.769 180.794 103.648 181.273 104.254 182.023L110.246 189.469Z" fill="#E6E6E6"/>
<path d="M118.284 200.38L108.883 207.916C108.339 208.351 107.645 208.553 106.952 208.477C106.259 208.402 105.625 208.055 105.188 207.513L101.233 202.598C99.8453 200.87 99.2012 198.662 99.4421 196.46C99.6829 194.258 100.789 192.242 102.518 190.853L104.018 189.65C105.47 188.489 107.325 187.95 109.175 188.151C111.026 188.353 112.72 189.279 113.888 190.726L118.688 196.691C119.124 197.234 119.326 197.927 119.25 198.619C119.175 199.31 118.827 199.944 118.284 200.38Z" fill="#3F3D56"/>
<path d="M110.246 189.469L106.338 192.602L99.6331 184.269C99.2169 183.752 99.0236 183.09 99.0958 182.431C99.1679 181.771 99.4995 181.168 100.018 180.752C100.536 180.337 101.198 180.144 101.859 180.216C102.52 180.288 103.125 180.619 103.541 181.136L110.246 189.469Z" fill="#3F3D56"/>
<path d="M117.712 200.738L107.409 208.997C106.655 209.598 105.693 209.877 104.734 209.771C103.774 209.665 102.896 209.184 102.292 208.433C101.687 207.682 101.406 206.722 101.509 205.764C101.613 204.806 102.093 203.929 102.844 203.324L113.147 195.065L117.712 200.738Z" fill="#3F3D56"/>
<path d="M103.473 209.371C103.841 209.076 103.708 208.301 103.176 207.64C102.644 206.979 101.915 206.682 101.547 206.977C101.179 207.272 101.312 208.047 101.844 208.708C102.375 209.369 103.105 209.666 103.473 209.371Z" fill="#E6E6E6"/>
<path d="M74.2376 212.542C74.2376 213.704 73.7751 214.819 72.9519 215.64C72.1286 216.462 71.012 216.924 69.8478 216.924C67.4233 216.924 67.3393 214.733 69.2206 212.542C67.3393 211.29 67.4233 208.161 69.8478 208.161C71.012 208.161 72.1286 208.622 72.9519 209.444C73.7751 210.266 74.2376 211.38 74.2376 212.542Z" fill="#CCCCCC"/>
<path d="M86.78 212.542C86.78 213.704 87.2425 214.819 88.0658 215.64C88.889 216.462 90.0056 216.924 91.1699 216.924C93.5943 216.924 93.6784 214.733 91.797 212.542C93.6784 211.29 93.5943 208.161 91.1699 208.161C90.0056 208.161 88.889 208.622 88.0658 209.444C87.2425 210.266 86.78 211.38 86.78 212.542Z" fill="#CCCCCC"/>
<path d="M89.2885 210.351H71.7291V214.733H89.2885V210.351Z" fill="#CCCCCC"/>
<path d="M326.582 217.758H14.6935C14.5827 217.758 14.4763 217.714 14.3979 217.636C14.3195 217.558 14.2755 217.452 14.2755 217.341C14.2755 217.23 14.3195 217.124 14.3979 217.046C14.4763 216.968 14.5827 216.924 14.6935 216.924H326.582C326.693 216.924 326.799 216.968 326.878 217.046C326.956 217.124 327 217.23 327 217.341C327 217.452 326.956 217.558 326.878 217.636C326.799 217.714 326.693 217.758 326.582 217.758Z" fill="#3F3D56"/>
<path d="M252.718 134.985C256.135 134.985 258.905 132.22 258.905 128.809C258.905 125.398 256.135 122.633 252.718 122.633C249.301 122.633 246.53 125.398 246.53 128.809C246.53 132.22 249.301 134.985 252.718 134.985Z" fill="#A0616A"/>
<path d="M252.318 163.432C252.199 163.06 252.159 162.668 252.202 162.281C252.245 161.894 252.37 161.52 252.568 161.184C252.766 160.848 253.033 160.557 253.351 160.331C253.669 160.106 254.032 159.949 254.415 159.873C254.536 159.85 254.659 159.834 254.782 159.828L261.3 149.387L255.346 143.738C255.119 143.522 254.936 143.263 254.81 142.977C254.683 142.69 254.614 142.381 254.608 142.068C254.601 141.755 254.657 141.443 254.772 141.152C254.886 140.86 255.058 140.594 255.276 140.369C255.495 140.144 255.755 139.964 256.044 139.84C256.332 139.717 256.642 139.651 256.956 139.647C257.27 139.644 257.581 139.702 257.872 139.819C258.163 139.936 258.428 140.11 258.652 140.33L266.872 148.42L266.888 148.44C267.143 148.826 267.266 149.284 267.239 149.745C267.212 150.207 267.036 150.647 266.739 151.001L257.606 161.781C257.634 161.868 257.656 161.956 257.674 162.044C257.751 162.427 257.745 162.821 257.659 163.201C257.572 163.581 257.405 163.938 257.171 164.249C256.936 164.561 256.637 164.819 256.296 165.008C255.954 165.196 255.576 165.31 255.187 165.342C255.108 165.349 255.03 165.353 254.952 165.353C254.366 165.35 253.796 165.163 253.323 164.818C252.85 164.473 252.498 163.988 252.318 163.432Z" fill="#A0616A"/>
<path d="M242.527 214.761H239.438L237.969 202.871L242.527 202.871L242.527 214.761Z" fill="#A0616A"/>
<path d="M243.441 217.876L233.23 217.875V217.624C233.23 217.099 233.333 216.58 233.534 216.095C233.736 215.61 234.03 215.17 234.402 214.799C234.774 214.428 235.215 214.134 235.7 213.933C236.186 213.733 236.706 213.629 237.232 213.629L243.441 213.629L243.441 217.876Z" fill="#2F2E41"/>
<path d="M273.226 210.499L270.572 212.077L263.214 202.61L267.131 200.283L273.226 210.499Z" fill="#A0616A"/>
<path d="M266.833 217.922L266.704 217.706C266.161 216.796 266.003 215.708 266.264 214.681C266.525 213.654 267.184 212.772 268.096 212.23L273.43 209.06L275.607 212.708L266.833 217.922Z" fill="#2F2E41"/>
<path d="M237.58 209.525C235.511 185.208 234.28 162.618 241.843 153.403L241.902 153.332L254.63 158.414L254.651 158.459C254.694 158.553 258.927 167.847 257.94 174.098L261.08 188.513L271.317 205.622C271.399 205.76 271.451 205.913 271.47 206.073C271.488 206.232 271.472 206.394 271.424 206.546C271.375 206.699 271.294 206.84 271.186 206.959C271.079 207.078 270.947 207.174 270.8 207.238L266.351 209.192C266.1 209.301 265.818 209.316 265.557 209.235C265.296 209.153 265.073 208.98 264.928 208.748L253.792 190.623L247.502 176.722C247.468 176.646 247.41 176.584 247.337 176.545C247.264 176.506 247.18 176.492 247.098 176.505C247.016 176.518 246.941 176.557 246.884 176.618C246.826 176.678 246.791 176.755 246.782 176.837L243.295 209.55C243.266 209.828 243.135 210.085 242.927 210.272C242.718 210.459 242.448 210.562 242.168 210.562H238.71C238.426 210.56 238.153 210.453 237.944 210.261C237.735 210.07 237.605 209.807 237.58 209.525Z" fill="#2F2E41"/>
<path d="M241.886 153.596L241.825 153.567L241.816 153.5C241.34 150.179 241.903 146.488 243.489 142.531C244.27 140.594 245.723 139.002 247.582 138.045C249.441 137.087 251.582 136.828 253.617 137.315C254.788 137.603 255.887 138.131 256.844 138.866C257.801 139.6 258.594 140.524 259.174 141.581C259.747 142.626 260.095 143.779 260.198 144.966C260.301 146.153 260.156 147.349 259.772 148.477C257.773 154.31 255.18 159.769 255.154 159.823L255.1 159.937L241.886 153.596Z" fill="#E6E6E6"/>
<path d="M232.727 167.372C232.64 166.701 232.796 166.021 233.169 165.456C233.541 164.89 234.104 164.477 234.756 164.291L246.659 141.483C246.815 141.227 247.021 141.004 247.264 140.827C247.507 140.651 247.782 140.524 248.075 140.454C248.367 140.384 248.67 140.373 248.967 140.42C249.264 140.468 249.548 140.573 249.804 140.731C250.06 140.888 250.282 141.095 250.457 141.338C250.633 141.582 250.758 141.858 250.827 142.15C250.895 142.442 250.905 142.745 250.856 143.041C250.806 143.337 250.699 143.62 250.54 143.874L238.356 166.524C238.381 166.661 238.397 166.801 238.401 166.941C238.411 167.324 238.344 167.705 238.203 168.062C238.062 168.418 237.851 168.742 237.581 169.015C237.311 169.288 236.989 169.503 236.634 169.649C236.279 169.794 235.898 169.866 235.514 169.861C235.093 169.855 234.679 169.756 234.301 169.571C233.923 169.386 233.591 169.12 233.328 168.792C232.999 168.384 232.791 167.892 232.727 167.372Z" fill="#A0616A"/>
<path d="M245.216 125.32H255.041V121.046C252.884 120.191 250.774 119.463 249.498 121.046C248.362 121.046 247.273 121.496 246.47 122.298C245.667 123.1 245.216 124.187 245.216 125.32Z" fill="#2F2E41"/>
<path d="M255.585 120.291C261.458 120.291 263.102 127.64 263.102 131.786C263.102 134.098 262.055 134.924 260.409 135.204L259.827 132.11L258.466 135.337C258.003 135.34 257.518 135.331 257.014 135.321L256.552 134.373L255.523 135.304C251.4 135.311 248.067 135.91 248.067 131.786C248.067 127.64 249.509 120.291 255.585 120.291Z" fill="#2F2E41"/>
</g>
</svg>
